<svg height="512pt" viewBox="-31 0 512 512" width="512pt" xmlns="http://www.w3.org/2000/svg"><path d="m405 362c-19.53125 0-36.023438 12.578125-42.238281 30h-32.761719v-122h30c49.628906 0 90-40.371094 90-90 0-47.914062-37.660156-87.144531-84.929688-89.796875-13.675781-.804687-27.332031 1.4375-40.082031 6.871094-7.5625 3.199219-16.433593-.289063-19.65625-7.953125-3.253906-7.632813.320313-16.4375 7.9375-19.671875 9.863281-4.179688 20.179688-6.8125 30.644531-8.238281-19.25-19.417969-45.5625-31.210938-73.914062-31.210938-3.429688 0-6.796875.25-10.105469.628906-22.0625-19.804687-50.160156-30.628906-79.894531-30.628906-43.96875 0-82.882812 24.496094-103.636719 61.074219 20.578125-2.417969 41.230469.261719 60.363281 8.375 7.617188 3.234375 11.191407 12.039062 7.941407 19.671875-3.222657 7.664062-12.09375 11.152344-19.660157 7.953125-22.445312-9.527344-40.601562-8.402344-61.699218-2.914063-37.261719 11.515625-63.308594 46.070313-63.308594 85.839844 0 49.628906 40.371094 90 90 90h30v122h-32.761719c-6.214843-17.421875-22.707031-30-42.238281-30-24.8125 0-45 20.1875-45 45s20.1875 45 45 45c19.53125 0 36.023438-12.578125 42.238281-30h47.761719c8.289062 0 15-6.710938 15-15v-137h60v154.761719c-17.421875 6.214843-30 22.707031-30 42.238281 0 24.8125 20.1875 45 45 45s45-20.1875 45-45c0-19.53125-12.578125-36.023438-30-42.238281v-154.761719h60v137c0 8.289062 6.710938 15 15 15h47.761719c6.214843 17.421875 22.707031 30 42.238281 30 24.8125 0 45-20.1875 45-45s-20.1875-45-45-45zm0 0"/></svg>